
        <svg xmlns="http://www.w3.org/2000/svg" xmlns:xlink="http://www.w3.org/1999/xlink" version="1.1" width="3222.222222222222" 
        height="705.3436357777371" viewBox="0 0 3222.222222222222 705.3436357777371">
			
			<g transform="scale(11.11111111111111) translate(10, 10)">
				<defs id="SvgjsDefs1752"></defs><g id="SvgjsG1753" featureKey="HdFLvg-0" transform="matrix(0.5990965650127094,0,0,0.5990965650127094,-5.306199629257808,-8.44895292480998)" fill="#00b894"><g xmlns="http://www.w3.org/2000/svg"><path d="M43.296,79.25c4.619,0,8.562-2.911,10.117-6.99c0.456-1.197,0.717-2.489,0.717-3.844c0-5.974-4.86-10.833-10.834-10.833   c-5.973,0-10.833,4.859-10.833,10.833c0,1.354,0.261,2.646,0.717,3.842C34.735,76.338,38.677,79.25,43.296,79.25z M43.298,74.47   c1.957,0,3.856-0.237,5.679-0.675c-1.429,1.508-3.444,2.455-5.681,2.455c-2.236,0-4.252-0.947-5.68-2.456   C39.439,74.231,41.34,74.47,43.298,74.47z"></path><path d="M35.771,50.211c0-5.973-4.86-10.832-10.833-10.832c-1.285,0-2.512,0.236-3.656,0.648   c-4.178,1.504-7.178,5.495-7.178,10.184c0,4.689,3,8.682,7.178,10.187c1.144,0.412,2.372,0.648,3.656,0.648   C30.912,61.046,35.771,56.186,35.771,50.211z M17.104,50.211c0-2.332,1.03-4.422,2.652-5.858c-0.466,1.877-0.717,3.839-0.717,5.86   c0,2.021,0.251,3.982,0.717,5.858C18.134,54.635,17.104,52.543,17.104,50.211z"></path><path d="M43.296,42.53c5.974,0,10.834-4.86,10.834-10.833c0-1.214-0.21-2.378-0.58-3.469c-1.451-4.275-5.495-7.364-10.254-7.364   s-8.803,3.09-10.253,7.366c-0.37,1.09-0.58,2.254-0.58,3.468C32.463,37.67,37.323,42.53,43.296,42.53z M43.296,23.863   c2.428,0,4.602,1.11,6.039,2.85c-1.93-0.494-3.953-0.758-6.037-0.758c-2.085,0-4.109,0.264-6.041,0.759   C38.695,24.974,40.868,23.863,43.296,23.863z"></path><path d="M50.824,50.211c0,5.975,4.859,10.835,10.833,10.835c1.284,0,2.512-0.236,3.655-0.648c4.178-1.504,7.178-5.495,7.178-10.185   c0-4.69-3-8.681-7.178-10.186c-1.144-0.412-2.371-0.648-3.655-0.648C55.684,39.379,50.824,44.238,50.824,50.211z M69.49,50.213   c0,2.332-1.03,4.424-2.652,5.859c0.466-1.877,0.717-3.838,0.717-5.859s-0.251-3.983-0.717-5.86   C68.46,45.789,69.49,47.88,69.49,50.213z"></path><path d="M37.818,50.213c0,3.021,2.458,5.479,5.479,5.479c3.021,0,5.479-2.458,5.479-5.479s-2.458-5.48-5.479-5.48   C40.276,44.733,37.818,47.191,37.818,50.213z M45.776,50.213c0,1.367-1.112,2.479-2.479,2.479c-1.367,0-2.479-1.112-2.479-2.479   c0-1.368,1.112-2.48,2.479-2.48C44.664,47.733,45.776,48.845,45.776,50.213z"></path><path d="M92.316,49.705c0-0.829-0.672-1.5-1.5-1.5s-1.5,0.671-1.5,1.5c0,17.588-14.305,31.897-31.891,31.904   c11.962-5.405,20.312-17.44,20.312-31.397c0-18.991-15.45-34.44-34.44-34.44s-34.44,15.45-34.44,34.44   c0,18.991,15.45,34.441,34.44,34.441c0.581,0,1.158-0.016,1.731-0.044h12.387l0,0C76.66,84.608,92.316,68.951,92.316,49.705z    M11.857,50.212c0-17.336,14.104-31.44,31.44-31.44s31.44,14.104,31.44,31.44c0,16.782-13.217,30.534-29.787,31.397h-1.653   c-0.11,0-0.216,0.014-0.32,0.036C25.789,81.473,11.857,67.441,11.857,50.212z"></path></g></g><g id="SvgjsG1754" featureKey="VomJeJ-0" transform="matrix(3.0750303463115918,0,0,3.0750303463115918,66.617466912315,-18.94218646406701)" fill="#00b894"><path d="M1.1 19.96 l1.06 -13.6 q0.88 -0.16 2.08 -0.16 t2.1 0.16 l1.18 4.9 q0.7 3.32 0.74 3.62 l0.14 0 q0.08 -0.5 0.74 -3.62 l1.2 -4.9 q0.88 -0.16 2.08 -0.16 t2.1 0.16 l1.06 13.6 q-0.62 0.16 -1.53 0.16 t-1.49 -0.1 l-0.32 -5.56 q-0.14 -3.32 -0.16 -4.62 l-0.12 0 l-1.98 8.14 q-0.72 0.12 -1.65 0.12 t-1.65 -0.12 l-1.96 -8.14 l-0.14 0 q0 1.78 -0.16 4.62 l-0.3 5.56 q-0.58 0.1 -1.49 0.1 t-1.53 -0.16 z M23.14 8.98 l0.02 1.48 l0 9.54 q-0.68 0.12 -1.62 0.12 t-1.58 -0.12 l0 -11.02 l-1.28 0.02 l-2.06 0 q-0.12 -0.58 -0.12 -1.33 t0.12 -1.33 l9.9 0 q0.16 0.52 0.16 1.26 t-0.4 1.07 t-1.28 0.33 l-0.58 0 l-1.26 -0.02 l-0.02 0 z M32.980000000000004 17.32 l2.62 -10.98 q0.48 -0.12 1.24 -0.12 q1.04 0 1.64 0.22 l0.12 0.16 l-3.74 13.4 q-1.14 0.12 -2.29 0.12 t-1.66 -0.29 t-0.77 -1.15 l-3.32 -12.06 q1.08 -0.46 1.78 -0.46 q0.84 0 1.24 0.38 t0.62 1.2 l1.54 5.7 q0.36 1.34 0.76 3.64 q0.04 0.24 0.22 0.24 z M46.220000000000006 10.9 q1.44 1.44 1.44 4.12 q0 1.2 -0.31 2.18 t-0.9 1.67 t-1.45 1.06 t-1.98 0.37 t-1.97 -0.38 t-1.44 -1.07 t-0.89 -1.67 t-0.3 -2.16 q0 -1.2 0.3 -2.17 t0.88 -1.67 t1.44 -1.08 t1.98 -0.38 q1.98 0 3.2 1.18 z M43.040000000000006 12.059999999999999 q-0.44 0 -0.71 0.21 t-0.43 0.57 t-0.22 0.83 t-0.06 1.01 q0 0.84 0.05 1.45 t0.2 1.02 t0.42 0.61 t0.71 0.2 q0.88 0 1.16 -0.77 t0.28 -2.19 q0 -1.44 -0.28 -2.19 t-1.12 -0.75 z M48.86000000000001 11.46 q0.1 -0.4 0.38 -0.89 t0.56 -0.71 q1.84 0.14 2.56 1.82 q0.76 -1.8 2.5 -1.8 q0.52 0 1.32 0.16 q0 0.62 -0.21 1.47 t-0.57 1.45 q-0.34 -0.12 -1.02 -0.2 q-1 0 -1.64 1.02 l0 6.22 q-0.66 0.12 -1.55 0.12 t-1.57 -0.12 l0 -6.46 q0 -1.5 -0.76 -2.08 z M62.96000000000001 10.02 q0.52 -0.12 1.28 -0.12 t1.48 0.22 l0.08 0.2 l-2.82 4.36 l3.16 4.8 q-1.04 0.7 -2.06 0.7 q-1.1 0 -1.7 -0.94 l-1.3 -1.98 l-1.6 2.74 q-0.38 0.12 -1.31 0.12 t-1.55 -0.24 l-0.1 -0.18 l3.06 -4.78 l-2.84 -4.42 q0.96 -0.68 2.12 -0.68 q0.56 0 0.9 0.23 t0.68 0.75 l1.06 1.64 z"></path></g>
			</g>
		</svg>
	